{"title":"Camila - Action - ATKGalleria","uid":9802134,"size":518379831,"categoryP":"porn","categoryS":"movie_clips","magnet":"?xt=urn:btih:19bdd9a1e0ce4084077ee375c860645ac09538f8&amp;dn=Camila+-+Action+-+ATKGalleria&amp;tr=udp%3A%2F%2Ftracker.openbittorrent.com%3A80&amp;tr=udp%3A%2F%2Fopen.demonii.com%3A1337&amp;tr=udp%3A%2F%2Ftracker.coppersurfer.tk%3A6969&amp;tr=udp%3A%2F%2Fexodus.desync.com%3A6969","seeders":2,"leechers":1,"uploader":"athklym","files":-1,"time":1395396981,"description":" &lt;a href=&quot;http://bayimg.com/IAmADaaFG&quot; rel=&quot;nofollow&quot; target=&quot;_NEW&quot;&gt;http://bayimg.com/IAmADaaFG&lt;/a&gt;\nCamila_Action_ATKGalleria.mp4\nFormat                                   : MPEG-4\nFormat profile                           : Base Media\nCodec ID                                 : isom\nFile size                                : 494 MiB\nDuration                                 : 17mn 30s\nOverall bit rate mode                    : Variable\nOverall bit rate                         : 3 949 Kbps\nWriting application                      : Lavf52.61.0\n\nVideo\nID                                       : 1\nFormat                                   : MPEG-4 Visual\nFormat profile                           : Simple@L3\nFormat settings, BVOP                    : No\nFormat settings, QPel                    : No\nFormat settings, GMC                     : No warppoints\nFormat settings, Matrix                  : Default (H.263)\nCodec ID                                 : 20\nDuration                                 : 17mn 30s\nBit rate                                 : 3 882 Kbps\nWidth                                    : 720 pixels\nHeight                                   : 406 pixels\nDisplay aspect ratio                     : 16:9\nFrame rate mode                          : Variable\nFrame rate                               : 29.970 fps\nMinimum frame rate                       : 14.985 fps\nMaximum frame rate                       : 29.970 fps\nColor space                              : YUV\nChroma subsampling                       : 4:2:0\nBit depth                                : 8 bits\nScan type                                : Progressive\nCompression mode                         : Lossy\nBits/(Pixel*Frame)                       : 0.443\nStream size                              : 486 MiB (98%)\nWriting library                          : XviD 1.2.1 (UTC 2008-12-04)\n\nAudio\nID                                       : 2\nFormat                                   : AAC\nFormat/Info                              : Advanced Audio Codec\nFormat profile                           : LC\nCodec ID                                 : 40\nDuration                                 : 17mn 29s\nBit rate mode                            : Variable\nBit rate                                 : 64.0 Kbps\nChannel count                            : 2 channels\nChannel positions                        : Front: L R\nSampling rate                            : 24.0 KHz\nCompression mode                         : Lossy\nStream size                              : 8.01 MiB (2%)\n\n","torrent":{"xt":"urn:btih:19bdd9a1e0ce4084077ee375c860645ac09538f8","amp;dn":"Camila+-+Action+-+ATKGalleria","amp;tr":["udp%3A%2F%2Ftracker.openbittorrent.com%3A80","udp%3A%2F%2Fopen.demonii.com%3A1337","udp%3A%2F%2Ftracker.coppersurfer.tk%3A6969","udp%3A%2F%2Fexodus.desync.com%3A6969"],"infoHash":"19bdd9a1e0ce4084077ee375c860645ac09538f8","infoHashBuffer":{"type":"Buffer","data":[25,189,217,161,224,206,64,132,7,126,227,117,200,96,100,90,192,149,56,248]},"announce":[],"urlList":[]}}